<svg xmlns="http://www.w3.org/2000/svg" xmlns:xlink="http://www.w3.org/1999/xlink" width="147" height="36" viewBox="0 0 147 36">
  <defs>
    <path d="M.249.295h18.808v27.69H.249z"></path>
  </defs>
  <g fill="none" fill-rule="evenodd">
    <path fill="white" d="M12.989 20.039c0 2.316-1.569 3.872-3.903 3.872-2.376 0-3.973-1.556-3.973-3.872V8.75L0 9.683v11.09c0 4.514 2.97 7.546 7.392 7.546 2.324 0 4.336-.85 5.715-2.402L13.171 28l4.93-.934V8.75l-5.112.933V20.04zM31.664 12.804c3.03 0 5.067 2.218 5.067 5.519 0 3.342-2.036 5.588-5.067 5.588s-5.067-2.232-5.067-5.553c0-3.322 2.036-5.554 5.067-5.554m1.094-4.373c-2.662 0-4.812.994-6.249 2.88l-.096-2.56-4.93.933v26.02l5.114-.932v-9.217c1.447 1.834 3.517 2.764 6.161 2.764 5.367 0 9.263-4.219 9.263-10.031 0-5.711-3.896-9.857-9.263-9.857M80.182 23.911c-1.468 0-2.455-1.078-2.455-2.682v-8.25h4.435V8.782h-4.435V3.217l-5.113.932v4.633h-1.082v4.197h1.082v9.231c0 3.654 2.417 6.109 6.015 6.109 1.792 0 3.485-.307 4.896-.887l.096-.04v-4.19l-.217.09c-1 .417-2.054.619-3.222.619M99.5 16.696h-8.501c.424-2.753 1.884-4.207 4.232-4.207 2.405 0 3.878 1.454 4.269 4.207m-4.27-8.265c-5.772 0-9.65 4.046-9.65 10.067 0 5.874 3.963 9.82 9.862 9.82 3.56 0 6.63-1.53 8.425-4.2l.098-.147-3.976-1.99-.08.096c-1.181 1.429-2.75 2.184-4.537 2.184-2.495 0-3.965-1.356-4.374-4.032h13.724l.017-.136c.043-.34.142-1.215.142-2.016 0-5.77-3.878-9.646-9.65-9.646M122.424 22.279c-1.04 1.098-2.411 1.632-4.192 1.632-3.164 0-5.208-2.18-5.208-5.554 0-3.321 2.079-5.553 5.173-5.553 1.445 0 2.602.411 3.639 1.294l.12.102 2.924-3.466-.128-.099c-1.863-1.441-4.155-2.204-6.626-2.204-6.216 0-10.392 3.99-10.392 9.926 0 5.958 4.134 9.962 10.286 9.962 3.044 0 5.584-.924 7.346-2.672l.103-.102-2.925-3.392-.12.126zM139.233 8.431c-2.424 0-4.519.838-5.95 2.368V.31l-5.112.933V28l5.112-.933V16.712c0-2.374 1.685-3.908 4.291-3.908 2.607 0 4.291 1.534 4.291 3.908V28l5.113-.933V15.94c0-4.492-3.112-7.51-7.745-7.51"></path>
    <g fill="white" class="logo-image">
      <path d="M52.671 29.635l-7.758-6.414v-5.763l7.758 6.061z"></path>
      <path d="M52.471 23.355h4.372l-6.381-5.277H46.09l6.381 5.277zm5.549.62h-5.775l-7.332-6.517h5.775l7.332 6.517z"></path>
      <path d="M58.019 23.975l-7.757-6.061V12.15l7.757 6.062z"></path>
      <path d="M57.82 18.047h4.371l-6.38-5.276h-4.372l6.38 5.276zm5.548.62h-5.775l-7.33-6.517h5.774l7.331 6.518z"></path>
      <path d="M63.368 18.668l-7.757-6.062V6.843l7.757 6.062z"></path>
      <path d="M63.169 12.74h4.371l-6.38-5.276h-4.372l6.38 5.276zm6.099.62h-6.326l-7.331-6.517h5.775l7.882 6.518z"></path>
    </g>
  </g>
</svg>